# xmcd
#
# Track frame offsets:
# 183
# 12720
# 26130
# 38753
# 52485
# 61880
# 76475
# 90898
# 104983
# 115920
# 126815
# 137113
# 150163
# 162008
# 176123
# 188768
# 202923
# 215918
#
# Disc length: 3209 seconds
#
# Revision: 1
# Processed by: cddbd v1.4PL0 Copyright (c) Steve Scherf et al.
# Submitted via: plextools 1.18
#
DISCID=000c8712
DTITLE=Lightning Slim - Rollin' Stone
DYEAR=1989
DGENRE=Blues
TTITLE0=Lightning Slim - Rock Me Mama
TTITLE1=Lightning Slim - Bad Luck
TTITLE2=Lightning Slim - New Orleans Bound
TTITLE3=Lightning Slim - I Can't Live Happy
TTITLE4=Lightning Slim - Bugger Bugger Boy
TTITLE5=Lightning Slim - Ethel Mae
TTITLE6=Lightning Slim - Mean Old Lonesome Train
TTITLE7=Lightning Slim - I'm Grown
TTITLE8=Lightning Slim - I'm A Rolling Stone
TTITLE9=Lightning Slim - Hoodoo Man
TTITLE10=Lightning Slim - Long Leanie Mama
TTITLE11=Lightning Slim - Tom Cat Blues
TTITLE12=Lightning Slim - Rooster Blues
TTITLE13=Lightning Slim - Nothing But The Devil
TTITLE14=Lightning Slim - Wintertime Blues
TTITLE15=Lightning Slim - Trip To Chicago
TTITLE16=Lightning Slim - I Hate To Leave You 
TTITLE17=Lightning Slim - Lightnin' Blues
EXTD=Flyright Records FLYCD 08
EXTT0=
EXTT1=
EXTT2=
EXTT3=
EXTT4=
EXTT5=
EXTT6=
EXTT7=
EXTT8=
EXTT9=
EXTT10=
EXTT11=
EXTT12=
EXTT13=
EXTT14=
EXTT15=
EXTT16=
EXTT17=
PLAYORDER=
